 <svg  version="1.0" xmlns="http://www.w3.org/2000/svg"  width="450.000000pt" height="450.000000pt" viewBox="0 0 450.000000 450.000000"  preserveAspectRatio="xMidYMid meet">  <g transform="translate(0.000000,450.000000) scale(0.100000,-0.100000)" fill="#d60000" stroke="none"> <path d="M1600 2586 c0 -2 13 -17 28 -34 16 -16 39 -51 53 -76 21 -40 28 -46 56 -46 l33 0 -30 49 c-16 26 -33 62 -36 80 -6 30 -9 31 -55 31 -27 0 -49 -2 -49 -4z"/> <path d="M1980 2575 c10 -12 6 -26 -19 -74 -33 -65 -35 -71 -23 -71 5 0 21 27 37 60 16 34 35 66 42 72 22 18 15 28 -18 28 -27 0 -30 -2 -19 -15z"/> <path d="M2084 2574 c3 -9 6 -45 6 -80 0 -61 1 -64 24 -64 23 0 25 4 28 63 2 34 8 70 12 80 7 15 3 17 -34 17 -34 0 -41 -3 -36 -16z"/> <path d="M2370 2571 c5 -11 10 -47 10 -80 0 -58 1 -61 25 -61 24 0 25 2 25 64 0 36 5 68 10 71 23 14 7 25 -35 25 -42 0 -45 -2 -35 -19z"/> <path d="M2665 2573 c4 -10 8 -22 9 -28 2 -5 10 -27 20 -47 9 -21 16 -44 16 -53 0 -10 10 -15 31 -15 21 0 30 4 27 13 -3 6 -15 42 -27 80 -21 63 -24 67 -53 67 -25 0 -29 -3 -23 -17z"/> <path d="M2653 2495 c-6 -16 -14 -38 -18 -47 -4 -11 -3 -18 4 -18 15 0 33 47 29 74 -3 18 -5 16 -15 -9z"/> <path d="M2114 2358 c1 -48 3 -53 25 -56 25 -4 51 19 51 44 0 20 -29 44 -45 38 -9 -4 -15 0 -15 10 0 9 -4 16 -9 16 -5 0 -8 -24 -7 -52z m54 -16 c3 -17 -2 -22 -17 -22 -14 0 -21 6 -21 18 0 38 33 41 38 4z"/> <path d="M2400 2395 c0 -8 -9 -15 -20 -15 -13 0 -22 -9 -26 -25 -8 -31 10 -55 42 -55 22 0 24 4 24 55 0 30 -4 55 -10 55 -5 0 -10 -7 -10 -15z m0 -50 c0 -16 -6 -25 -15 -25 -15 0 -21 31 -8 43 13 14 23 6 23 -18z"/> <path d="M1898 2359 c-11 -33 -12 -33 -18 -10 -7 33 -27 38 -33 9 l-4 -23 -8 23 c-4 12 -12 22 -17 22 -5 0 -6 -10 -3 -22 4 -13 9 -31 11 -40 8 -26 21 -22 31 9 l10 28 6 -28 c10 -38 22 -34 36 14 15 50 6 66 -11 18z"/> <path d="M1996 2374 c-19 -18 -21 -45 -4 -62 15 -15 48 -16 48 -2 0 6 -9 10 -20 10 -11 0 -20 5 -20 10 0 6 11 10 25 10 30 0 34 25 6 40 -15 7 -23 6 -35 -6z"/> <path d="M2505 2370 c-25 -28 -7 -70 30 -70 14 0 25 5 25 10 0 6 -11 10 -25 10 -14 0 -25 5 -25 10 0 6 11 10 25 10 27 0 33 18 13 38 -16 16 -22 15 -43 -8z"/> <path d="M2667 2359 l-14 -34 -6 28 c-4 15 -12 27 -18 27 -6 0 -8 -7 -5 -16 3 -9 9 -27 12 -40 9 -37 29 -29 43 17 15 51 7 63 -12 18z"/> <path d="M1808 2191 c2 -27 0 -63 -6 -80 -11 -31 -11 -31 26 -31 l37 0 -3 80 -4 80 -27 0 c-28 0 -28 -1 -23 -49z"/> <path d="M2090 2172 c0 -40 -5 -73 -12 -80 -9 -9 -1 -12 35 -12 45 0 47 1 37 21 -7 11 -10 47 -8 80 3 59 3 59 -24 59 -28 0 -28 0 -28 -68z"/> <path d="M2380 2172 c0 -40 -5 -73 -12 -80 -9 -9 -1 -12 35 -12 44 0 47 1 37 19 -5 11 -10 47 -10 80 0 58 -1 61 -25 61 -24 0 -25 -2 -25 -68z"/> <path d="M2546 2179 c-10 -33 -26 -69 -37 -80 -19 -19 -19 -19 17 -19 30 0 34 2 25 14 -9 10 -6 29 13 80 16 46 20 66 11 66 -7 0 -20 -27 -29 -61z"/> <path d="M2796 2193 c13 -25 24 -61 24 -80 0 -33 1 -33 46 -33 l45 0 -18 24 c-10 13 -27 49 -38 80 -18 52 -21 56 -51 56 l-31 0 23 -47z"/> </g> </svg> 